<!-- Generated by IcoMoon.io -->
<svg version="1.1" xmlns="http://www.w3.org/2000/svg" width="1024" height="1024" viewBox="0 0 1024 1024">
<title></title>
<g id="icomoon-ignore">
</g>
<path d="M192 288v-192.083c0-35.249 28.617-63.917 63.918-63.917h480.165c35.408 0 63.918 28.616 63.918 63.917v192.083h-608zM160 800h-32.183c-52.919 0-95.817-42.972-95.817-95.982v-288.037c0-52.962 42.899-95.982 95.817-95.982h736.366c52.919 0 95.817 42.972 95.817 95.982v288.037c0 52.962-42.899 95.982-95.817 95.982h-32.183v-160h-672v160zM192 672h608v256.012c0 35.59-28.617 63.988-63.918 63.988h-480.165c-35.408 0-63.918-28.648-63.918-63.988v-256.012zM768 512c17.673 0 32-14.327 32-32s-14.327-32-32-32c-17.673 0-32 14.327-32 32s14.327 32 32 32v0zM256 768v32h480v-32h-480zM256 864v32h480v-32h-480z"></path>
</svg>
